<?xml version="1.0" encoding="UTF-8"?>
<!-- Created with Inkscape (http://www.inkscape.org/) -->
<svg width="78.549mm" height="63.222mm" version="1.1" viewBox="0 0 78.549 63.222" xmlns="http://www.w3.org/2000/svg" xmlns:cc="http://creativecommons.org/ns#" xmlns:dc="http://purl.org/dc/elements/1.1/" xmlns:rdf="http://www.w3.org/1999/02/22-rdf-syntax-ns#">
 <metadata>
  <rdf:RDF>
   <cc:Work rdf:about="">
    <dc:format>image/svg+xml</dc:format>
    <dc:type rdf:resource="http://purl.org/dc/dcmitype/StillImage"/>
    <dc:title/>
   </cc:Work>
  </rdf:RDF>
 </metadata>
 <g transform="translate(-399.53 380.59)">
  <g transform="matrix(.20572 0 0 -.20572 469.82 -349.58)">
   <path d="m0 0c0-83.258-67.494-150.75-150.75-150.75-83.258 0-150.75 67.494-150.75 150.75s67.494 150.75 150.75 150.75c83.259 0 150.75-67.494 150.75-150.75" fill="#61c2dd"/>
  </g>
  <g transform="matrix(.20572 0 0 -.20572 467.14 -349.58)" fill="#007593">
   <path d="m0 0c0-76.068-61.665-137.73-137.73-137.73s-137.73 61.665-137.73 137.73 61.665 137.73 137.73 137.73 137.73-61.665 137.73-137.73z" fill="#007593" stroke="#fff" stroke-miterlimit="10" stroke-width="5"/>
  </g>
  <g transform="matrix(.20572 0 0 -.20572 413.93 -321.78)">
   <path d="m0 0v-5.346c0-7.474-6.116-13.59-13.59-13.59h-40.273c-7.475 0-13.591 6.116-13.591 13.59v40.285c0 7.475 6.116 13.59 13.591 13.59h27.939v-34.938c0-7.475 6.116-13.591 13.591-13.591z" fill="#007593"/>
  </g>
  <g transform="matrix(.20572 0 0 -.20572 413.93 -321.78)">
   <path d="m0 0v-5.346c0-7.474-6.116-13.59-13.59-13.59h-40.273c-7.475 0-13.591 6.116-13.591 13.59v40.285c0 7.475 6.116 13.59 13.591 13.59h27.939v-34.938c0-7.475 6.116-13.591 13.591-13.591z" fill="none" stroke="#fff" stroke-miterlimit="10" stroke-width="5"/>
  </g>
  <g transform="matrix(.20572 0 0 -.20572 477.57 -328.97)">
   <path d="m0 0v-40.285c0-7.475-6.115-13.59-13.59-13.59h-40.273c-7.475 0-13.591 6.115-13.591 13.59v5.346h10.805c7.474 0 13.59 6.116 13.59 13.59v34.939h29.469c7.475 0 13.59-6.115 13.59-13.59" fill="#007593"/>
  </g>
  <g transform="matrix(.20572 0 0 -.20572 477.57 -328.97)">
   <path d="m0 0v-40.285c0-7.475-6.115-13.59-13.59-13.59h-40.273c-7.475 0-13.591 6.115-13.591 13.59v5.346h10.805c7.474 0 13.59 6.116 13.59 13.59v34.939h29.469c7.475 0 13.59-6.115 13.59-13.59z" fill="none" stroke="#fff" stroke-miterlimit="10" stroke-width="5"/>
  </g>
  <g transform="matrix(.20572 0 0 -.20572 468.71 -332.96)">
   <path d="m0 0v-40.749c0-7.475-6.116-13.591-13.591-13.591h-265.05c-7.475 0-13.59 6.116-13.59 13.591v40.749c0 7.475 6.115 13.59 13.59 13.59h265.05c7.475 0 13.591-6.115 13.591-13.59" fill="#007593"/>
  </g>
  <path d="m428.76-331.42c-0.32252 4e-3 -0.59155 0.0805-0.8072 0.23048-0.21937 0.14813-0.37862 0.31704-0.478 0.50643-0.0619 0.0994-0.10797 0.22993-0.13797 0.39119-0.0281 0.16126-0.0419 0.47974-0.0419 0.95601 0 0.46877 0.0137 0.78584 0.0419 0.95085 0.015 0.0881 0.0338 0.16098 0.0563 0.21911 0.0244 0.0563 0.0517 0.11537 0.0817 0.17725 0.0994 0.18938 0.25863 0.35636 0.47802 0.50074 0.21563 0.15001 0.48467 0.22866 0.80718 0.23616 0.41815-7e-3 0.76513-0.14914 1.0408-0.42478 0.27377-0.27751 0.41419-0.62133 0.42169-1.032v-0.8356h-1.4568v0.58807h0.8356v0.21395c-4e-3 0.25688-0.0848 0.46364-0.24236 0.62114-0.15751 0.16501-0.35704 0.24754-0.59893 0.24754-0.14625 0-0.27171-0.0306-0.37673-0.0925-0.10687-0.0525-0.19327-0.1213-0.2589-0.20568-0.0806-0.0881-0.13394-0.20321-0.16018-0.34571-0.03-0.14251-0.045-0.41541-0.045-0.81856 0-0.40314 0.0149-0.67798 0.045-0.82424 0.0263-0.13875 0.0796-0.2519 0.16018-0.34003 0.0656-0.0844 0.15203-0.15458 0.2589-0.21084 0.10502-0.0544 0.23048-0.0836 0.37673-0.0873 0.19875 4e-3 0.36767 0.0609 0.50642 0.17157 0.13314 0.11625 0.22482 0.25667 0.27544 0.42168h0.65836c-0.0656-0.34314-0.22346-0.631-0.47284-0.86351-0.24938-0.23064-0.57173-0.34765-0.96738-0.3514zm10.143 0.0336v4.101h0.58757v-1.7384c0-0.20439 0.0553-0.35976 0.16589-0.46664 0.10875-0.10876 0.24775-0.1633 0.41651-0.1633 0.16874 0 0.30653 0.0545 0.4134 0.1633 0.10876 0.10688 0.1633 0.26225 0.1633 0.46664v1.7384h0.58757v-1.941c-9e-3 -0.33377-0.11338-0.58662-0.31214-0.75913-0.20062-0.17063-0.42164-0.2558-0.66352-0.2558-0.31313 0-0.56651 0.11508-0.75965 0.34572h-0.0114v-1.4909zm3.1104 0v0.58808h0.58809v-0.58808zm4.1687 0.29249v0.88883h-0.29247v0.44752h0.29247v1.7524c0 0.23063 0.0671 0.40677 0.20206 0.52865 0.13126 0.12751 0.30017 0.1912 0.50644 0.1912h0.30644v-0.55397h-0.21911c-0.14251 4e-3 -0.212-0.0684-0.20826-0.21652v-1.7017h0.42737v-0.44751h-0.42737v-0.88884zm-13.931 0.85266c-0.31314 0-0.56651 0.11508-0.75964 0.34572h-0.0114v-0.30955h-0.58756v2.9197h0.58756v-1.758c4e-3 -0.21376 0.066-0.36842 0.18603-0.46405 0.10688-0.0975 0.23499-0.14625 0.38499-0.14625 0.13313 0 0.26175 0.0487 0.38551 0.14625l0.42736-0.50902c-0.17438-0.14625-0.37849-0.22104-0.61288-0.22479zm1.6846 0c-0.43501-7e-3 -0.7644 0.13485-0.98754 0.42737l0.46148 0.35139c0.0506-0.0844 0.12013-0.1442 0.20825-0.17983 0.0844-0.03 0.19945-0.045 0.34572-0.045 0.40313-8e-3 0.6032 0.11725 0.59944 0.37414v0.30644h-0.81287c-0.31126 4e-3 -0.54775 0.0882-0.709 0.25322-0.16125 0.16125-0.24184 0.36466-0.24184 0.6103 0 0.25688 0.0929 0.46802 0.27854 0.63303 0.17625 0.16876 0.42717 0.25463 0.75343 0.25838 0.19877 0 0.35465-0.0241 0.46716-0.0729 0.11438-0.0469 0.19884-0.12024 0.25322-0.21962h0.0114v0.2589h0.58756v-1.9942c-4e-3 -0.35626-0.11548-0.6077-0.33486-0.75395-0.21939-0.14251-0.51254-0.21149-0.88006-0.20774zm3.3161 0c-0.30752 9e-3 -0.55895 0.12252-0.75397 0.34003v-0.30386h-0.58756v4.101h0.58756v-1.4934c0.10689 0.105 0.22442 0.18752 0.35192 0.24753 0.11814 0.0656 0.25204 0.0982 0.40205 0.0982 0.18188-4e-3 0.33726-0.0402 0.46663-0.10955 0.13126-0.0675 0.23718-0.15777 0.31782-0.27027 0.0806-0.0956 0.13639-0.21845 0.1664-0.36846 0.0281-0.15 0.0419-0.39706 0.0419-0.74207 0-0.35439-0.0137-0.60583-0.0419-0.75396-0.03-0.15001-0.0858-0.27089-0.1664-0.36277-0.16501-0.24563-0.42631-0.37303-0.78445-0.3824zm7.0848 0c-0.31125 0-0.56798 0.0748-0.77049 0.22479-0.20814 0.15001-0.31406 0.37489-0.31781 0.6749 4e-3 0.24938 0.0843 0.44363 0.24184 0.58239 0.15376 0.14251 0.35329 0.22503 0.59894 0.24753l0.5178 0.045c0.10875 4e-3 0.19585 0.0272 0.26148 0.0703 0.0637 0.0413 0.0956 0.11462 0.0956 0.21963 0 0.11812-0.0533 0.2098-0.16019 0.27543-0.10688 0.0656-0.24466 0.0982-0.41342 0.0982-0.37689 0-0.68481-0.12424-0.92294-0.37362l-0.41031 0.40204c0.38064 0.34876 0.80892 0.52297 1.2852 0.52297 0.35064-4e-3 0.63851-0.0843 0.86352-0.24185 0.22688-0.15376 0.34196-0.37212 0.34571-0.65526 0-0.24188-0.0625-0.44142-0.1881-0.59893-0.13501-0.16125-0.35459-0.25345-0.65836-0.27595l-0.48369-0.0362c-0.1425-0.015-0.24192-0.05-0.29817-0.10439-0.0619-0.0488-0.0911-0.10593-0.0873-0.17156 0-0.10313 0.0384-0.18759 0.11524-0.25322 0.0731-0.0656 0.20175-0.0982 0.3855-0.0982 0.16125 0 0.30361 0.0234 0.42736 0.0703 0.12564 0.0525 0.2451 0.11885 0.3576 0.19947l0.36277-0.42478c-0.1425-0.12375-0.30368-0.22194-0.48369-0.29507-0.0938-0.0337-0.1944-0.0598-0.30127-0.0785-0.10688-0.0169-0.22776-0.0253-0.36277-0.0253zm4.4695 0c-0.13875 0-0.27968 0.0254-0.42218 0.076-0.14438 0.0506-0.27442 0.13315-0.39068 0.24753-0.11438 0.11251-0.2085 0.26595-0.28163 0.46096-0.0731 0.19125-0.10956 0.43108-0.10956 0.71985 0 0.30001 0.0422 0.54423 0.1266 0.73174 0.0769 0.195 0.17701 0.34651 0.30076 0.45527 0.0637 0.0525 0.13255 0.0967 0.20568 0.13229 0.0694 0.0412 0.1403 0.0743 0.21342 0.0987 0.14626 0.045 0.29635 0.0672 0.45011 0.0672 0.40314 4e-3 0.75398-0.15356 1.0521-0.47233l-0.42477-0.36276c-0.18751 0.18939-0.40007 0.2837-0.63822 0.28371-0.20438-1e-5 -0.36942-0.0618-0.49505-0.18552-0.13501-0.12188-0.20257-0.29995-0.20257-0.53434h1.8195v-0.48369c-4e-3 -0.38439-0.12269-0.6865-0.35709-0.90589-0.23062-0.21563-0.51268-0.32491-0.84646-0.32866zm-6.7929 0.0362v2.9197h0.58809v-2.9197zm6.7929 0.5178c0.17626 0 0.32056 0.0553 0.43306 0.16588 0.11438 0.11625 0.17544 0.28781 0.18294 0.5147h-1.232c0.0113-0.22689 0.0718-0.39845 0.18241-0.5147 0.11251-0.11063 0.25731-0.16588 0.43356-0.16588zm-11.732 0.0336c0.13877 0 0.24856 0.0234 0.32919 0.0703 0.0806 0.0506 0.13781 0.12012 0.17155 0.20825 0.0375 0.0844 0.0628 0.18186 0.076 0.29249 4e-3 0.11063 6e-3 0.2243 6e-3 0.34055 0 0.11063-2e-3 0.21849-6e-3 0.32349-0.0131 0.10688-0.0385 0.20437-0.076 0.29249-0.0337 0.0844-0.0909 0.15337-0.17155 0.20774-0.0806 0.0525-0.19042 0.0791-0.32919 0.0791-0.13126 0-0.23524-0.0285-0.31211-0.0848-0.0806-0.0544-0.13976-0.12529-0.17725-0.21342-0.0356-0.0881-0.059-0.18683-0.0703-0.29559-0.0113-0.10313-0.017-0.20589-0.017-0.30902 0-0.11063 6e-3 -0.22043 0.017-0.32918 0.0112-0.10313 0.0346-0.19868 0.0703-0.28681 0.0375-0.0881 0.0966-0.15956 0.17725-0.21394 0.0769-0.0544 0.18085-0.0817 0.31211-0.0817zm-3.2148 1.1307h0.70331v0.21084c0 0.21938-0.0461 0.36032-0.13798 0.4222-0.10124 0.0619-0.27474 0.0906-0.52038 0.0868-0.195 0-0.33471-0.0384-0.4191-0.11524-0.0881-0.0694-0.13228-0.15384-0.13228-0.25322-4e-3 -0.22688 0.16516-0.3439 0.50643-0.3514z" fill="#fddd00"/>
  <g transform="translate(285.59 -456.95)">
   <g transform="matrix(.19376 0 0 -.19376 153.26 92.779)">
    <path d="m0 0c22.419 0 44.839 0.058 67.258-0.081 2.553-0.016 5.444-0.591 7.539-1.916 1.677-1.06 3.351-3.643 3.373-5.569 0.245-20.808 0.172-41.619 0.126-62.43-2e-3 -0.829-0.414-1.886-1.011-2.392-0.31-0.262-1.551 0.303-2.19 0.752-2.1 1.476-4.468 2.782-6.055 4.71-1.228 1.491-1.992 3.813-2.013 5.776-0.156 14.265-0.366 28.542 0.077 42.796 0.181 5.783-3.75 9.609-9.532 9.58-38.831-0.2-77.664-0.099-116.5-0.112-6.382-2e-3 -8.885-2.546-8.884-8.866 2e-3 -23.278 1e-3 -46.555-4e-3 -69.833 0-4.488 2.539-7.193 7.074-7.211 15.876-0.06 31.751-0.05 47.627-0.058 6.973-3e-3 13.945 0.049 20.917-0.025 0.965-0.011 1.923-0.608 2.884-0.934-0.346-0.86-0.5-1.878-1.065-2.553-5.132-6.113-7.637-12.975-6.534-21.046 0.084-0.612-1.243-2.037-1.926-2.045-12.227-0.135-24.457-0.131-36.685-0.064-0.759 4e-3 -1.514 0.785-2.271 1.204 0.787 0.571 1.557 1.606 2.365 1.637 4.392 0.172 8.793 0.063 13.191 0.117 3.639 0.044 4.234 0.881 3.794 4.446-0.221 1.794-0.242 3.653-0.049 5.451 0.431 4.046-0.411 5.1-4.601 5.112-7.938 0.023-15.876 0.015-23.814 1e-3 -8.366-0.013-16.73-0.043-25.095-0.078-2.639-0.012-6.273 2.881-7.158 5.993-0.432 1.521-0.602 3.163-0.604 4.751-0.035 27.247-0.037 54.494-0.017 81.741 6e-3 7.702 3.468 11.132 11.233 11.139 22.849 0.021 45.697 7e-3 68.546 7e-3" fill="#fddd00"/>
   </g>
   <g transform="matrix(.19376 0 0 -.19376 157.46 114.64)">
    <path d="m0 0c3.817-0.03 6.094 1.537 6.062 4.174-0.027 2.215-4.433 6.504-6.717 6.538-2.629 0.04-4.69-1.764-4.749-4.155-0.09-3.577 2.346-6.533 5.404-6.557m17.809 6.518c3.86-0.043 5.483 1.631 5.48 5.778-2e-3 2.337-1.085 3.979-3.549 4.078-4.574 0.183-8.286-2.45-8.291-5.688-5e-3 -2.862 1.914-4.119 6.36-4.168m22.954-8.514c0.057 0.184 0.114 0.366 0.172 0.55 0.427 0 0.869 0.067 1.281-0.012 1.984-0.382 3.564-9e-3 4.524 2.004 0.961 2.014 0.134 3.412-1.243 4.837-1.174 1.217-2.172 2.609-3.184 3.971-1.571 2.111-3.689 2.494-5.582 0.995-1.693-1.342-3.108-3.217-4.171-5.121-1.184-2.12-0.719-4.337 1.706-5.36 2.061-0.87 4.324-1.261 6.497-1.864m8.399-21.454c2 0.631 4.172 0.971 5.933 2.009 0.95 0.559 1.845 2.443 1.632 3.499-0.501 2.463-1.421 4.945-2.694 7.113-0.829 1.413-2.556 3.19-3.914 3.218-2.863 0.057-5.819-0.714-8.572-1.64-0.651-0.219-1.128-2.515-0.838-3.636 0.542-2.095 1.941-3.963 2.554-6.05 0.889-3.04 2.712-4.416 5.899-4.513m-14.932-15.559c-8.447-0.068-16.452 1.861-24.106 5.358-0.29 0.131-0.64 0.259-0.815 0.497-1.077 1.46-2.11 2.951-3.158 4.431 1.588 0.582 3.142 1.513 4.771 1.671 3.148 0.306 5.469 1.738 5.88 4.365 0.485 3.104-1.057 5.624-3.781 6.279-5.13 1.236-10.469 2.507-15.674 2.335-9.234-0.305-11.841 2.283-13.245 9.55-0.727 3.763 1.104 8.425 2.856 12.179 3.782 8.104 10.837 12.386 19.384 14.296 7.493 1.674 14.858 0.95 22.32-0.763 12.344-2.834 23.085-8.139 31.25-18.078 3.893-4.737 6.595-10.17 6.816-16.202 0.326-8.893-3.832-15.784-11.431-20.507-6.454-4.01-13.576-5.428-21.067-5.411" fill="#fddd00"/>
   </g>
   <g transform="matrix(.19376 0 0 -.19376 159.27 101.18)">
    <path d="m0 0c2.99-2.25 5.692-4.253 8.358-6.302 1.61-1.237 3.045-2.743 4.774-3.765 1.56-0.922 3.435-1.297 5.132-2.01 1.744-0.733 3.552-1.405 5.132-2.417 3.57-2.284 7.094-4.437 9.547-8.307 1.677-2.646 4.928-4.337 7.581-6.313 12.355-9.204 24.763-18.336 37.085-27.583 0.829-0.622 1.1-1.984 1.631-3.003-1.093 0.221-2.362 0.156-3.251 0.705-14.618 9.045-29.155 18.223-43.808 27.211-2.101 1.288-4.932 1.38-7.044 2.657-4.713 2.847-9.84 4.957-13.033 10.219-1.327 2.186-2.644 5.8-6.878 6.028-3.635 0.195-6.742 7.95-5.226 12.88" fill="#fddd00"/>
   </g>
  </g>
  <g transform="translate(364.44 -432.69)" fill="#fddd00">
   <path transform="matrix(.26458 0 0 .26458 -78.855 -24.26)" d="m702.81 498.69c-1.1458 0-2.1306 0.375-2.957 1.125-0.88194 0.75694-1.3299 1.8375-1.3438 3.2402v6.6973c0.0139 1.3958 0.46181 2.4716 1.3438 3.2285 0.82639 0.75 1.8112 1.1326 2.957 1.1465 1.1806-0.0139 2.1853-0.39648 3.0117-1.1465 0.84028-0.75695 1.273-1.8327 1.3008-3.2285v-6.6973c-0.0278-1.4028-0.4605-2.4833-1.3008-3.2402-0.82639-0.75-1.8312-1.125-3.0117-1.125zm10.043 0c-1.1667 0.0139-2.1506 0.42296-2.9492 1.2285-0.79166 0.82638-1.214 1.8728-1.2695 3.1367h2.166c0.0764-0.69444 0.31879-1.2333 0.72851-1.6152 0.39584-0.38195 0.89302-0.57227 1.4902-0.57227 0.67361 0.0139 1.1944 0.23264 1.5625 0.65625 0.35416 0.42361 0.53125 0.91884 0.53125 1.4883 0 0.21528-0.0284 0.44445-0.084 0.6875-0.0833 0.25695-0.23958 0.53538-0.46875 0.83399l-5.9258 7.416v2.0527h8.6562v-2.1777h-5.8027l4.8848-6.125c0.61111-0.77777 0.91797-1.666 0.91797-2.666-0.0139-1.25-0.43533-2.2812-1.2617-3.0938-0.8125-0.81945-1.8702-1.2361-3.1758-1.25zm-10.043 2.1777c1.382 0.0278 2.0951 0.80144 2.1367 2.3223v6.4375c-0.0417 1.5347-0.75477 2.3084-2.1367 2.3223-1.3889-0.0139-2.0972-0.78754-2.125-2.3223v-6.4375c0.0278-1.5208 0.73611-2.2945 2.125-2.3223z"/>
   <path transform="matrix(.26458 0 0 .26458 -78.855 -24.26)" d="m698.57 485.62v9.4922h1.3828v-6.7461h0.0254l4.125 6.7461h1.3086v-9.4922h-1.3848v6.7441h-0.0234l-4.1309-6.7441zm8.7617 0v9.4922h1.3848v-9.4922zm2.3535 0 3.0117 9.4922h1.0762l3.0156-9.4922h-1.4629l-2.0781 7.2266h-0.0254l-2.0723-7.2266zm6.3535 8.1309v1.3613h1.3086v-1.3613z"/>
  </g>
 </g>
</svg>
