<?xml version="1.0" encoding="UTF-8"?>
<!-- Created with Inkscape (http://www.inkscape.org/) -->
<svg width="78.549mm" height="63.293mm" version="1.1" viewBox="0 0 78.549 63.293" xmlns="http://www.w3.org/2000/svg" xmlns:cc="http://creativecommons.org/ns#" xmlns:dc="http://purl.org/dc/elements/1.1/" xmlns:rdf="http://www.w3.org/1999/02/22-rdf-syntax-ns#">
 <metadata>
  <rdf:RDF>
   <cc:Work rdf:about="">
    <dc:format>image/svg+xml</dc:format>
    <dc:type rdf:resource="http://purl.org/dc/dcmitype/StillImage"/>
    <dc:title/>
   </cc:Work>
  </rdf:RDF>
 </metadata>
 <g transform="translate(-285.59 223.25)">
  <g transform="matrix(.20572 0 0 -.20572 355.88 -192.16)">
   <path d="m0 0c0-83.258-67.494-150.75-150.75-150.75-83.258 0-150.75 67.494-150.75 150.75s67.494 150.75 150.75 150.75c83.259 0 150.75-67.494 150.75-150.75" fill="#61c2dd"/>
  </g>
  <g transform="matrix(.20572 0 0 -.20572 353.2 -192.16)" fill="#007593">
   <path d="m0 0c0-76.068-61.665-137.73-137.73-137.73s-137.73 61.665-137.73 137.73 61.665 137.73 137.73 137.73 137.73-61.665 137.73-137.73z" fill="#007593" stroke="#fff" stroke-miterlimit="10" stroke-width="5"/>
  </g>
  <g transform="matrix(.20572 0 0 -.20572 299.98 -164.36)">
   <path d="m0 0v-5.346c0-7.474-6.116-13.59-13.59-13.59h-40.273c-7.475 0-13.591 6.116-13.591 13.59v40.285c0 7.475 6.116 13.59 13.591 13.59h27.939v-34.938c0-7.475 6.116-13.591 13.591-13.591z" fill="#007593"/>
  </g>
  <g transform="matrix(.20572 0 0 -.20572 299.98 -164.36)">
   <path d="m0 0v-5.346c0-7.474-6.116-13.59-13.59-13.59h-40.273c-7.475 0-13.591 6.116-13.591 13.59v40.285c0 7.475 6.116 13.59 13.591 13.59h27.939v-34.938c0-7.475 6.116-13.591 13.591-13.591z" fill="none" stroke="#fff" stroke-miterlimit="10" stroke-width="5"/>
  </g>
  <g transform="matrix(.20572 0 0 -.20572 363.62 -171.55)">
   <path d="m0 0v-40.285c0-7.475-6.115-13.59-13.59-13.59h-40.273c-7.475 0-13.591 6.115-13.591 13.59v5.346h10.805c7.474 0 13.59 6.116 13.59 13.59v34.939h29.469c7.475 0 13.59-6.115 13.59-13.59" fill="#007593"/>
  </g>
  <g transform="matrix(.20572 0 0 -.20572 363.62 -171.55)">
   <path d="m0 0v-40.285c0-7.475-6.115-13.59-13.59-13.59h-40.273c-7.475 0-13.591 6.115-13.591 13.59v5.346h10.805c7.474 0 13.59 6.116 13.59 13.59v34.939h29.469c7.475 0 13.59-6.115 13.59-13.59z" fill="none" stroke="#fff" stroke-miterlimit="10" stroke-width="5"/>
  </g>
  <g transform="matrix(.20572 0 0 -.20572 354.76 -175.54)">
   <path d="m0 0v-40.749c0-7.475-6.116-13.591-13.591-13.591h-265.05c-7.475 0-13.59 6.116-13.59 13.591v40.749c0 7.475 6.115 13.59 13.59 13.59h265.05c7.475 0 13.591-6.115 13.591-13.59" fill="#007593"/>
  </g>
  <path d="m307.79-174.01 1.0237 4.101h0.51779l0.78445-2.9564h0.0114l0.78187 2.9564h0.52038l1.0237-4.101h-0.65526l-0.64699 2.914h-0.0114l-0.79323-2.914h-0.44959l-0.79633 2.914h-0.0109l-0.6444-2.914zm7.8414 0v4.101h0.58808v-0.30644c0.19501 0.21938 0.44644 0.33253 0.75396 0.34003 0.18188-4e-3 0.33725-0.0402 0.46663-0.10956 0.13126-0.0675 0.23719-0.15776 0.31781-0.27026 0.0806-0.0919 0.13588-0.21663 0.16588-0.37414 0.0281-0.15 0.0424-0.39706 0.0424-0.74207 0-0.35064-0.0143-0.60015-0.0424-0.74828-0.03-0.15-0.0853-0.27089-0.16588-0.36277-0.165-0.24563-0.4263-0.37354-0.78444-0.38292-0.15001 0-0.28443 0.0311-0.40256 0.093-0.12751 0.0656-0.24452 0.15009-0.3514 0.25322v-1.4909zm4.4302 0v4.101h1.3922c0.30751 0 0.5674-0.0676 0.77928-0.20257 0.21376-0.12563 0.38023-0.28488 0.50023-0.47801 0.045-0.0731 0.0839-0.14385 0.11576-0.21136 0.03-0.0694 0.0522-0.14803 0.0672-0.23616 0.0319-0.17438 0.0481-0.48178 0.0481-0.92242 0-0.41439-0.0104-0.70612-0.031-0.87488-0.0263-0.16876-0.0892-0.32994-0.18862-0.48369-0.27752-0.45752-0.69348-0.6882-1.2485-0.69195zm9.2449 0v0.58808h0.58808v-0.58808zm-8.6232 0.58808h0.74207c0.31501-7e-3 0.55923 0.10758 0.73174 0.34571 0.0844 0.0956 0.1377 0.22038 0.1602 0.37414 0.0169 0.15376 0.0253 0.40906 0.0253 0.76533 0 0.36564-8e-3 0.61462-0.0253 0.74775-0.0188 0.13501-0.0629 0.24674-0.1323 0.33487-0.1575 0.23813-0.41088 0.35708-0.75964 0.35708h-0.74207zm-6.8714 0.55655c-0.13875 0-0.27917 0.0253-0.42168 0.076-0.14438 0.0506-0.27493 0.13315-0.39119 0.24753-0.11438 0.11251-0.20799 0.26646-0.28112 0.46147-0.0731 0.19126-0.11007 0.43109-0.11007 0.71986 0 0.30001 0.0422 0.54371 0.12661 0.73122 0.0769 0.19501 0.17752 0.34703 0.30127 0.45578 0.0638 0.0525 0.13203 0.0967 0.20516 0.13229 0.0694 0.0412 0.14081 0.0738 0.21394 0.0982 0.14625 0.045 0.29634 0.0677 0.4501 0.0677 0.40314 4e-3 0.75348-0.15356 1.0516-0.47232l-0.42479-0.36277c-0.1875 0.18939-0.40006 0.2837-0.6382 0.2837-0.20438 0-0.36943-0.0618-0.49506-0.18551-0.13501-0.12188-0.20257-0.29995-0.20257-0.53434h1.8195v-0.48369c-4e-3 -0.38439-0.1227-0.6865-0.35709-0.90589-0.23063-0.21563-0.51269-0.32543-0.84646-0.32917zm10.89 0c-0.13875 0-0.27917 0.0253-0.42168 0.076-0.14438 0.0506-0.27493 0.13315-0.39119 0.24753-0.11438 0.11251-0.20799 0.26646-0.28112 0.46147-0.0731 0.19126-0.10955 0.43109-0.10955 0.71986 0 0.30001 0.0422 0.54371 0.12661 0.73122 0.0769 0.19501 0.177 0.34703 0.30075 0.45578 0.0638 0.0525 0.13203 0.0967 0.20516 0.13229 0.0694 0.0412 0.14081 0.0738 0.21394 0.0982 0.14625 0.045 0.29634 0.0677 0.4501 0.0677 0.40314 4e-3 0.75348-0.15356 1.0516-0.47232l-0.42427-0.36277c-0.1875 0.18939-0.40058 0.2837-0.63872 0.2837-0.20438 0-0.36943-0.0618-0.49506-0.18551-0.135-0.12188-0.20257-0.29995-0.20257-0.53434h1.82v-0.48369c-4e-3 -0.38439-0.1227-0.6865-0.35709-0.90589-0.23063-0.21563-0.51321-0.32543-0.84698-0.32917zm2.7761 0c-0.31126 0-0.56799 0.0753-0.77049 0.22531-0.20814 0.15001-0.31407 0.37488-0.31781 0.67489 4e-3 0.24939 0.0843 0.44364 0.24184 0.5824 0.15376 0.1425 0.3533 0.22503 0.59893 0.24753l0.5178 0.045c0.10875 4e-3 0.19586 0.0272 0.26148 0.0703 0.0637 0.0412 0.0956 0.1141 0.0956 0.21911 0 0.11813-0.0533 0.21032-0.1602 0.27595-0.10688 0.0656-0.24465 0.0982-0.41341 0.0982-0.37689 0-0.6848-0.12475-0.92294-0.37414l-0.41031 0.40256c0.38064 0.34877 0.80892 0.52297 1.2852 0.52297 0.35064-4e-3 0.63851-0.0843 0.86352-0.24185 0.22688-0.15376 0.34248-0.37212 0.34623-0.65526 0-0.24188-0.063-0.44142-0.18862-0.59893-0.13501-0.16125-0.3546-0.25345-0.65836-0.27595l-0.48369-0.0367c-0.14251-0.015-0.24192-0.0495-0.29817-0.10387-0.0619-0.0488-0.0911-0.10594-0.0873-0.17156 0-0.10313 0.0389-0.18759 0.11575-0.25322 0.0731-0.0656 0.20124-0.0982 0.38499-0.0982 0.16126 0 0.30413 0.0234 0.42788 0.0703 0.12563 0.0525 0.24458 0.11884 0.35709 0.19947l0.36276-0.42478c-0.1425-0.12375-0.30368-0.22194-0.48369-0.29507-0.0937-0.0337-0.19439-0.0603-0.30127-0.0791-0.10688-0.0169-0.22776-0.0253-0.36277-0.0253zm4.084 0c-0.18938 4e-3 -0.34669 0.0407-0.47232 0.11007-0.13126 0.0731-0.2319 0.15565-0.30128 0.24753-0.0769 0.0937-0.13213 0.20884-0.16588 0.34572-0.0356 0.13875-0.0532 0.40392-0.0532 0.79581 0 0.3844 0.0176 0.64551 0.0532 0.78238 0.0337 0.13876 0.089 0.25578 0.16588 0.35141 0.0694 0.0844 0.17002 0.16303 0.30128 0.23616 0.12563 0.0769 0.28294 0.11717 0.47232 0.12092 0.30939-7e-3 0.56083-0.12065 0.75396-0.34003v0.30076c-4e-3 0.19875-0.0655 0.35413-0.18552 0.46663-0.12188 0.11063-0.28357 0.16588-0.48421 0.16589-0.10688-4e-3 -0.20964-0.0324-0.30902-0.0868-0.0975-0.0487-0.1839-0.10788-0.2589-0.17725l-0.45579 0.36276c0.27939 0.31877 0.61722 0.48188 1.0129 0.48938 0.34501 0 0.64132-0.10593 0.88884-0.31781 0.24563-0.20626 0.3718-0.52861 0.3793-0.96738v-2.8494h-0.58756v0.30954c-0.21188-0.23065-0.46332-0.34625-0.75396-0.34625zm3.4623 0c-0.31314 0-0.56599 0.1156-0.75912 0.34623h-0.0114v-0.30954h-0.58808v2.9197h0.58808v-1.7384c0-0.20438 0.0553-0.35975 0.16588-0.46663 0.10875-0.10876 0.24775-0.1633 0.41651-0.1633s0.30653 0.0545 0.41341 0.1633c0.10876 0.10688 0.16278 0.26225 0.16278 0.46663v1.7384h0.58808v-1.941c-9e-3 -0.33376-0.11337-0.58662-0.31213-0.75912-0.20063-0.17064-0.42215-0.25632-0.66404-0.25632zm2.7957 0c-0.13876 0-0.27918 0.0253-0.42168 0.076-0.14438 0.0506-0.27494 0.13315-0.39119 0.24753-0.11438 0.11251-0.208 0.26646-0.28112 0.46147-0.0731 0.19126-0.10956 0.43109-0.10956 0.71986 0 0.30001 0.0422 0.54371 0.12661 0.73122 0.0769 0.19501 0.177 0.34703 0.30076 0.45578 0.0637 0.0525 0.13202 0.0967 0.20515 0.13229 0.0694 0.0412 0.14081 0.0738 0.21394 0.0982 0.14626 0.045 0.29635 0.0677 0.4501 0.0677 0.40315 4e-3 0.75348-0.15356 1.0516-0.47232l-0.42426-0.36277c-0.18751 0.18939-0.40059 0.2837-0.63872 0.2837-0.20439 0-0.36943-0.0618-0.49507-0.18551-0.135-0.12188-0.20257-0.29995-0.20257-0.53434h1.82v-0.48369c-4e-3 -0.38439-0.1227-0.6865-0.35709-0.90589-0.23063-0.21563-0.51321-0.32543-0.84697-0.32917zm3.1786 0c-0.31313 0-0.56651 0.1156-0.75964 0.34623h-0.0114v-0.30954h-0.58756v2.9197h0.58756v-1.758c4e-3 -0.21376 0.0655-0.36843 0.18552-0.46406 0.10688-0.0975 0.2355-0.14624 0.38551-0.14624 0.13313 0 0.26175 0.0487 0.3855 0.14624l0.42737-0.50901c-0.17438-0.14626-0.3785-0.22156-0.61289-0.22531zm-11.692 0.0367v2.9197h0.58808v-2.9197zm-15.495 0.5178c0.17626 0 0.32055 0.0553 0.43305 0.16588 0.11438 0.11626 0.17544 0.28781 0.18293 0.5147h-1.232c0.0112-0.22689 0.0723-0.39844 0.18293-0.5147 0.11251-0.11063 0.2568-0.16588 0.43305-0.16588zm10.89 0c0.17626 0 0.32055 0.0553 0.43305 0.16588 0.11438 0.11626 0.17544 0.28781 0.18294 0.5147h-1.232c0.0113-0.22689 0.0723-0.39844 0.18294-0.5147 0.1125-0.11063 0.25678-0.16588 0.43304-0.16588zm13.118 0c0.17625 0 0.32054 0.0553 0.43304 0.16588 0.11438 0.11626 0.17544 0.28781 0.18294 0.5147h-1.232c0.0112-0.22689 0.0723-0.39844 0.18294-0.5147 0.1125-0.11063 0.25679-0.16588 0.43305-0.16588zm-21.024 0.0336c0.13875 0 0.24855 0.0234 0.32918 0.0703 0.0806 0.0506 0.13781 0.12013 0.17156 0.20826 0.0375 0.0881 0.0623 0.18367 0.0754 0.2868 4e-3 0.11063 6e-3 0.22429 6e-3 0.34055 0 0.11063-2e-3 0.21797-6e-3 0.32297-0.0131 0.11063-0.038 0.21005-0.0754 0.29818-0.0337 0.0844-0.0909 0.15388-0.17156 0.20825-0.0806 0.0525-0.19043 0.0791-0.32918 0.0791-0.13126 0-0.23525-0.0285-0.31213-0.0847-0.0806-0.0544-0.13975-0.12529-0.17725-0.21342-0.0356-0.0881-0.059-0.18683-0.0703-0.29559-0.0112-0.10688-0.017-0.21158-0.017-0.31471 0-0.1125 6e-3 -0.22036 0.017-0.32349 0.0112-0.10313 0.0346-0.19919 0.0703-0.28732 0.0375-0.0881 0.0966-0.15905 0.17725-0.21343 0.0769-0.0544 0.18087-0.0816 0.31213-0.0816zm14.943 0c0.11438 4e-3 0.20993 0.0272 0.28681 0.0703 0.0769 0.0506 0.13528 0.10201 0.17466 0.15451 0.0487 0.0544 0.0813 0.12581 0.0982 0.21394 0.0112 0.0881 0.0171 0.24544 0.0171 0.47232 0 0.22314-6e-3 0.3771-0.0171 0.46147-0.0169 0.0881-0.0494 0.1615-0.0982 0.21963-0.0394 0.0525-0.0978 0.10002-0.17466 0.14314-0.0769 0.0525-0.17243 0.0791-0.28681 0.0791s-0.20993-0.0266-0.2868-0.0791c-0.0806-0.0431-0.14046-0.0906-0.17984-0.14314-0.0488-0.0581-0.0799-0.1315-0.093-0.21963-0.015-0.0844-0.0227-0.23833-0.0227-0.46147 0-0.22688 8e-3 -0.38419 0.0227-0.47232 0.0131-0.0881 0.0443-0.15956 0.093-0.21394 0.0394-0.0525 0.0992-0.10388 0.17984-0.15451 0.0769-0.0431 0.17242-0.0665 0.2868-0.0703z" fill="#fddd00"/>
  <g transform="translate(266.47 -373.78)">
   <g transform="matrix(.20753 0 0 -.20753 53.074 172.7)">
    <path d="m0 0c5.452-6.076 10.771-12.009 16.096-17.937 10.635-11.842 21.274-23.68 31.909-35.521 2.227-2.481 4.436-4.977 6.673-7.45 1.834-2.028 1.864-2.039-0.086-3.79-12.383-11.115-24.713-22.29-37.194-33.294-4.761-4.198-10.513-6.637-16.638-8.345-5.129-1.431-10.324-1.612-15.512-1.252-6.436 0.446-12.618 2.402-17.272 6.95-5.342 5.22-10.237 10.934-14.962 16.732-2.875 3.527-4.127 7.919-4.651 12.508-1.789 15.677 3.765 28.461 15.235 38.89 11.518 10.474 23.122 20.853 34.697 31.265 0.456 0.411 0.995 0.73 1.705 1.244" fill="#fddd00"/>
   </g>
   <g transform="matrix(.20753 0 0 -.20753 65.834 172.19)">
    <path d="m0 0c-1.782 0.858-3.239 1.723-4.806 2.282-3.62 1.292-6.852-0.06-9.65-2.15-2.806-2.094-5.334-4.577-7.879-7.001-3.802-3.622-4.145-7.494-1.399-12.619 0.295-0.551 0.329-1.719-0.031-2.063-2.456-2.349-5.078-4.523-7.582-6.824-0.778-0.716-1.216-0.541-1.832 0.146-8.174 9.111-16.377 18.197-24.514 27.342-0.337 0.379-0.385 1.613-0.077 1.879 6.461 5.569 12.057 12.206 19.715 16.303 5.356 2.866 11.177 4.306 17.197 3.967 9.48-0.535 17.812-3.986 24.246-11.233 2.045-2.302 3.757-4.014 7.45-2.721 4.022 1.408 7.76 2.852 10.494 6.248 2.295 2.849 2.691 6.009 0.683 8.979-1.818 2.685-4.215 4.978-6.355 7.445-2.205 2.544-4.803 4.851-6.528 7.687-3.263 5.363-1.805 11.316 3.437 14.802 3.994 2.656 8.421 3.724 13.22 2.475 2.533-0.659 5.112-1.171 7.597-1.975 0.952-0.308 2.659-0.475 2.058-2.299-0.463-1.403-2.524-2.226-3.916-1.753-2.495 0.848-4.971 1.8-7.526 2.412-3.039 0.727-6.14 0.675-9.106-0.496-3.372-1.332-4.496-4.984-2.864-8.956 1.477-3.594 4.251-6.096 6.993-8.687 2.251-2.127 4.574-4.314 6.265-6.87 3.205-4.842 2.55-9.924-1.228-14.552-3.395-4.159-7.75-7.041-12.436-9.479-0.35-0.182-1.209 0.075-1.506 0.413-3.029 3.452-3.004 3.461-6.378 0.399-1.015-0.922-2.076-1.797-3.125-2.682-0.236-0.198-0.513-0.349-0.617-0.419" fill="#fddd00"/>
   </g>
   <g transform="matrix(.20753 0 0 -.20753 59.874 179.09)">
    <path d="m0 0c2.983 2.694 5.814 5.293 8.721 7.804 0.27 0.233 1.172 0.096 1.53-0.186 4.685-3.69 8.667-2.847 13.12 0.25 2.962 2.062 5.472 4.778 8.16 7.227 3.505 3.192 3.471 8.2 1.577 11.657-0.791 1.443-0.547 2.286 0.532 3.229 1.509 1.32 3.039 2.622 4.479 4.015 0.99 0.958 1.667 0.92 2.637-0.107 4.314-4.567 7.779-9.679 9.442-15.757 1.538-5.621 1.557-11.352 0.437-17.129-1.706-8.799-6.675-15.414-13.348-21.033-3.123-2.63-6.169-5.361-9.116-8.186-1.229-1.178-2.025-1.065-3.058 0.094-7.047 7.911-14.115 15.802-21.175 23.701-1.287 1.44-2.569 2.884-3.938 4.421" fill="#fddd00"/>
   </g>
   <g transform="matrix(.20753 0 0 -.20753 64.574 172.74)">
    <path d="m0 0c2.645-0.328 4.4-1.203 5.455-3.256 1.128-2.199 1.01-4.364-0.693-6.07-2.869-2.874-5.848-5.663-8.988-8.234-2.167-1.775-5.468-1.143-7.331 0.989-1.991 2.278-2.117 5.389 0.017 7.501 2.77 2.74 5.703 5.326 8.686 7.835 0.853 0.716 2.125 0.934 2.854 1.235" fill="#fddd00"/>
   </g>
  </g>
  <text x="313.57224" y="-170.09502" fill="#000000" font-family="sans-serif" font-size="10.583px" letter-spacing="0px" stroke-width=".26458" word-spacing="0px" style="line-height:1.25" xml:space="preserve"><tspan x="313.57224" y="-170.09502" stroke-width=".26458"> </tspan></text>
  <text x="351.99319" y="-223.24585" fill="#000000" font-family="sans-serif" font-size="10.583px" letter-spacing="0px" stroke-width=".26458" word-spacing="0px" style="line-height:1.25" xml:space="preserve"><tspan x="351.99319" y="-223.24585" stroke-width=".26458">    </tspan></text>
  <g transform="translate(250.59 -275.37)" fill="#fddd00">
   <path transform="matrix(.26458 0 0 .26458 15.88 -98.414)" d="m344.76 778.96c-1.1458 0-2.1326 0.375-2.959 1.125-0.88194 0.75695-1.3299 1.8375-1.3438 3.2402v6.6973c0.0139 1.3958 0.46181 2.4735 1.3438 3.2305 0.82639 0.75 1.8132 1.1306 2.959 1.1445 1.1806-0.0139 2.1834-0.39453 3.0098-1.1445 0.84028-0.75695 1.275-1.8346 1.3027-3.2305v-6.6973c-0.0278-1.4028-0.46246-2.4833-1.3027-3.2402-0.82638-0.75-1.8292-1.125-3.0098-1.125zm10.041 0c-1.1667 0.0139-2.1486 0.42491-2.9473 1.2305-0.79167 0.82639-1.2159 1.8709-1.2715 3.1348h2.166c0.0764-0.69444 0.32075-1.2333 0.73047-1.6152 0.39583-0.38194 0.89106-0.57227 1.4883-0.57227 0.67361 0.0139 1.1944 0.23264 1.5625 0.65626 0.35417 0.42361 0.53125 0.92078 0.53125 1.4902 0 0.21528-0.0265 0.44444-0.082 0.6875-0.0833 0.25694-0.23958 0.53342-0.46875 0.83203l-5.9277 7.418v2.0508h8.6562v-2.1758h-5.8027l4.8867-6.125c0.61111-0.77778 0.91601-1.668 0.91601-2.668-0.0139-1.25-0.43337-2.2812-1.2598-3.0938-0.8125-0.81944-1.8722-1.2361-3.1777-1.25zm-10.041 2.1777c1.3819 0.0278 2.0931 0.80144 2.1348 2.3223v6.4375c-0.0417 1.5347-0.75282 2.3103-2.1348 2.3242-1.3889-0.0139-2.0972-0.7895-2.125-2.3242v-6.4375c0.0278-1.5208 0.73611-2.2945 2.125-2.3223z"/>
   <path transform="matrix(.26458 0 0 .26458 15.88 -98.414)" d="m340.51 765.89v9.4922h1.3848v-6.7441h0.0234l4.125 6.7441h1.3086v-9.4922h-1.3828v6.7441h-0.0254l-4.1309-6.7441zm8.7637 0v9.4922h1.3828v-9.4922zm2.3535 0 3.0098 9.4922h1.0762l3.0176-9.4922h-1.4648l-2.0781 7.2266h-0.0254l-2.0703-7.2266zm6.3516 8.1309v1.3613h1.3086v-1.3613z"/>
  </g>
 </g>
</svg>
